<svg width="22" height="21" viewBox="0 0 22 21" fill="none" xmlns="http://www.w3.org/2000/svg">
<path d="M21.001 19.249H20.001V7.97899C20.001 7.35899 19.721 6.77899 19.231 6.39899L12.231 0.958994C11.511 0.388994 10.491 0.388994 9.77098 0.958994L2.77098 6.39899C2.28098 6.77899 2.00098 7.35899 2.00098 7.96899L1.95098 19.249H1.00098C0.802064 19.249 0.611299 19.328 0.470647 19.4687C0.329994 19.6093 0.250977 19.8001 0.250977 19.999C0.250977 20.1979 0.329994 20.3887 0.470647 20.5293C0.611299 20.67 0.802064 20.749 1.00098 20.749H21.001C21.1999 20.749 21.3907 20.67 21.5313 20.5293C21.672 20.3887 21.751 20.1979 21.751 19.999C21.751 19.8001 21.672 19.6093 21.5313 19.4687C21.3907 19.328 21.1999 19.249 21.001 19.249ZM9.50098 4.74899H12.501C12.911 4.74899 13.251 5.08899 13.251 5.49899C13.251 5.90899 12.911 6.24899 12.501 6.24899H9.50098C9.09098 6.24899 8.75098 5.90899 8.75098 5.49899C8.75098 5.08899 9.09098 4.74899 9.50098 4.74899ZM16.001 19.249H6.00098V10.499C6.00098 9.66899 6.67098 8.99899 7.50098 8.99899H14.501C15.331 8.99899 16.001 9.66899 16.001 10.499V19.249Z" fill="url(#paint0_linear_4027_8807)"/>
<defs>
<linearGradient id="paint0_linear_4027_8807" x1="1.3187" y1="10.6402" x2="17.8297" y2="18.0651" gradientUnits="userSpaceOnUse">
<stop stop-color="#5404FF"/>
<stop offset="0.819014" stop-color="#BD3BD2" stop-opacity="0.94"/>
</linearGradient>
</defs>
</svg>
