<svg width="176" height="43" viewBox="0 0 176 43" fill="none" xmlns="http://www.w3.org/2000/svg">
<g clip-path="url(#clip0_4155_12837)">
<path d="M5.80989 0.45501H0.000488281V24.6204C0.000488281 26.677 0.575573 28.3382 1.72529 29.6041C2.87477 30.8696 4.3936 31.5025 6.28176 31.5025C7.58869 31.5025 9.01683 31.094 10.566 30.2765L9.65799 25.3327C8.69033 25.7018 7.98834 25.8861 7.55246 25.8861C7.01976 25.8861 6.59642 25.7282 6.28154 25.4115C5.96711 25.095 5.80967 24.6733 5.80967 24.146V0.455238L5.80989 0.45501ZM37.2523 40.065C43.5693 40.065 45.8384 37.0989 47.4543 31.7001L53.9172 9.90745H47.2727L43.9685 25.1937L40.5558 9.90745H33.8027L40.4471 31.2451L40.1926 32.056C39.6481 33.8355 38.3591 34.8838 36.7253 34.8838C35.7813 34.8838 34.8916 34.8049 34.5833 34.6466V39.8474C34.8371 39.9463 35.9627 40.0648 37.252 40.0648L37.2523 40.065ZM62.0322 31.364C64.6823 31.364 67.151 30.4146 68.64 28.7337C68.676 28.9119 68.7306 29.0698 68.7851 29.248C69.0391 30.0391 69.4932 30.6914 69.6931 30.909H76.0286C75.7923 30.6718 75.3204 29.9796 75.0481 29.0302C74.8119 28.1801 74.8119 27.1119 74.8119 25.9848V17.3626C74.8119 12.0034 70.1283 9.49186 64.9363 9.49186C59.3996 9.49186 55.079 12.2607 55.079 17.4417H61.4689C61.4689 15.6622 62.6127 14.7722 64.8821 14.7722C67.0059 14.7722 68.313 15.6421 68.313 16.9078V16.9477C68.313 17.7584 67.0968 17.9561 63.0306 18.3715C58.8006 18.8065 54.7887 20.6258 54.7887 25.1741C54.7887 29.1291 57.8384 31.3638 62.0322 31.3638V31.364ZM63.8837 26.242C62.1953 26.242 61.2876 25.6685 61.2876 24.5019C61.2876 23.2955 62.2862 22.8603 64.3555 22.6231C65.6809 22.4848 67.1152 22.2474 68.3859 21.9111C68.1316 25.0554 65.9714 26.242 63.8837 26.242ZM85.2327 0H78.8605V30.909H85.2327V0ZM89.3348 30.909H95.8159V28.4963C97.3227 30.2959 99.374 31.3836 101.643 31.3836C106.472 31.3836 110.666 27.587 110.666 20.2895C110.666 13.3484 106.308 9.51191 101.643 9.51191C99.3737 9.51191 97.3224 10.5204 95.8159 12.2408V0H89.3348V30.909ZM99.8643 15.2862C102.043 15.2862 103.985 16.7695 103.985 20.2895C103.985 23.8293 102.025 25.3915 99.8643 25.3915C97.8492 25.3915 95.8159 23.7503 95.8159 20.9619V19.6171C95.8159 16.8288 97.8854 15.2862 99.8643 15.2862ZM120.215 31.3638C122.865 31.3638 125.334 30.4143 126.822 28.7335C126.859 28.9117 126.914 29.0696 126.968 29.2478C127.222 30.0388 127.676 30.6912 127.876 30.9088H134.211C133.975 30.6716 133.503 29.9794 133.231 29.0299C132.995 28.1798 132.995 27.1117 132.995 25.9845V17.3624C132.995 12.0032 128.311 9.49163 123.119 9.49163C117.582 9.49163 113.262 12.2604 113.262 17.4414H119.652C119.652 15.6619 120.796 14.772 123.065 14.772C125.189 14.772 126.495 15.6419 126.495 16.9076V16.9475C126.495 17.7581 125.279 17.9559 121.213 18.3713C116.983 18.8062 112.971 20.6256 112.971 25.1739C112.971 29.1288 116.021 31.3635 120.215 31.3635V31.3638ZM122.066 26.2418C120.378 26.2418 119.47 25.6683 119.47 24.5017C119.47 23.2953 120.469 22.8601 122.538 22.6229C123.864 22.4846 125.297 22.2472 126.568 21.9109C126.314 25.0552 124.154 26.2418 122.066 26.2418ZM152.782 25.53H143.015L152.546 14.97V9.90745H136.099V15.2666H145.357L135.754 25.8465V30.909H152.782V25.5302V25.53ZM175.729 24.2641H169.338C169.23 25.154 168.195 26.2222 165.508 26.2222C162.948 26.2222 161.496 24.8574 161.006 22.4251H175.928C175.964 22.1086 176 21.4757 176 20.7641C176 13.9217 171.88 9.49186 165.236 9.49186C158.791 9.49186 154.416 13.8822 154.416 20.4476C154.416 26.8946 158.628 31.4034 165.236 31.4034C171.662 31.4034 175.383 27.9231 175.729 24.2643V24.2641ZM165.326 14.5938C168.031 14.5938 169.266 16.3341 169.429 18.0152H161.078C161.641 15.8198 163.094 14.5938 165.326 14.5938Z" fill="white"/>
<path d="M16.9289 31.4647L28.3165 26.658C37.1585 22.9161 33.7743 11.015 24.1788 13.1492C22.2621 10.3349 19.6749 9.27447 17.3607 9.43738L21.5043 19.4567L26.0845 17.5428C28.167 16.7226 30.3454 20.269 27.6979 21.7261L19.307 25.3907L13.385 11.2458C11.3367 13.1845 10.3328 16.4792 11.973 20.1904L16.9289 31.4645V31.4647Z" fill="url(#paint0_linear_4155_12837)"/>
</g>
<defs>
<linearGradient id="paint0_linear_4155_12837" x1="12.2607" y1="20.443" x2="29.6587" y2="27.8821" gradientUnits="userSpaceOnUse">
<stop stop-color="#5404FF"/>
<stop offset="0.819014" stop-color="#BD3BD2" stop-opacity="0.94"/>
</linearGradient>
<clipPath id="clip0_4155_12837">
<rect width="176" height="42.7424" fill="white"/>
</clipPath>
</defs>
</svg>
